<svg xmlns="http://www.w3.org/2000/svg" xmlns:xlink="http://www.w3.org/1999/xlink" width="1024" zoomAndPan="magnify" viewBox="0 0 768 767.999994" height="1024" preserveAspectRatio="xMidYMid meet" version="1.0"><path fill="#000000" d="M 203.605469 131.5625 C 185.058594 134.449219 164.847656 142.5625 148.230469 153.789062 C 140.597656 158.945312 125.988281 173.210938 122.023438 179.375 C 116.398438 188.121094 117.777344 196.476562 125.074219 197.847656 C 131.132812 198.984375 135.355469 197.597656 141.632812 192.410156 C 152.042969 183.808594 158.15625 188.515625 147.964844 197.289062 C 143.324219 201.289062 142.984375 201.984375 143.207031 207.0625 C 143.503906 213.898438 145.703125 219.25 150.421875 224.625 C 155.773438 230.71875 162.996094 233.109375 174.097656 232.460938 C 190.527344 231.5 203.175781 223.234375 216.289062 204.890625 C 225.890625 191.457031 236.878906 187.226562 250.085938 191.890625 C 261.09375 195.773438 269.75 206.175781 273.214844 219.679688 C 278.515625 240.355469 265.316406 267.816406 241.21875 286.238281 C 236.953125 289.5 237.160156 289.125 243.078125 282.90625 C 250.675781 274.929688 253.421875 270.574219 250.859375 270.574219 C 249.96875 270.574219 245.851562 271.953125 241.703125 273.640625 C 237.554688 275.324219 226.144531 279.507812 216.347656 282.929688 C 158.6875 303.089844 117.851562 325.117188 86.152344 353.164062 C 61.53125 374.941406 39.746094 407.5625 32.226562 433.910156 C 28.640625 446.464844 27.808594 466.035156 30.34375 478.265625 C 36.558594 508.292969 62.410156 534.039062 97.929688 545.582031 C 126.621094 554.90625 150.378906 557.539062 216.878906 558.777344 C 250.5625 559.40625 259.957031 558.894531 256.308594 556.640625 C 255.722656 556.28125 247.8125 554.574219 238.726562 552.847656 C 137.546875 533.644531 91.03125 515.03125 64.25 483.03125 C 59.164062 476.953125 52.832031 465.65625 50.984375 459.359375 C 48.722656 451.648438 47.675781 439.890625 48.746094 434.246094 C 53.804688 407.578125 79.464844 377.925781 107.988281 365.789062 C 118.007812 361.527344 126.125 361.40625 136.0625 365.371094 L 143.421875 368.308594 L 138.726562 375.367188 C 124.921875 396.125 126.847656 416.015625 143.515625 424.800781 C 149.253906 427.824219 150.910156 428.160156 157.8125 427.6875 C 174.527344 426.542969 192.5625 413.859375 219.910156 384.015625 C 242.421875 359.453125 244.523438 357.003906 243.746094 356.226562 C 242.652344 355.132812 226.15625 367.167969 206.644531 383.296875 C 182.292969 403.433594 177.144531 407.226562 169.402344 410.773438 C 159.664062 415.230469 153.164062 415.828125 149.117188 412.636719 C 140.019531 405.453125 150.96875 385.773438 172.496094 370.617188 C 188.183594 359.574219 199.617188 354.515625 237.675781 341.800781 C 272.539062 330.152344 286.835938 322.511719 301.4375 307.726562 C 321.535156 287.375 330.242188 266.878906 331.304688 237.433594 C 331.824219 223.046875 331.582031 220.300781 328.878906 209.851562 C 321.734375 182.265625 305.34375 160.40625 280.921875 145.914062 C 257.664062 132.109375 231.402344 127.234375 203.605469 131.5625 M 200.308594 133.828125 C 187.042969 136.265625 179.660156 138.765625 166.578125 145.242188 C 137.59375 159.589844 115.1875 183.429688 121.554688 193.148438 C 123.089844 195.488281 124.421875 196.007812 128.902344 196.007812 C 133.40625 196.007812 135.273438 195.273438 139.4375 191.859375 C 142.21875 189.582031 145.738281 187.253906 147.253906 186.695312 C 154.6875 183.945312 158.824219 192.960938 151.792969 196.59375 C 146.335938 199.414062 144.273438 203.414062 144.992188 209.777344 C 145.859375 217.480469 150.925781 224.253906 158.890625 228.355469 C 167.9375 233.015625 177.523438 232.421875 190.167969 226.417969 C 199.847656 221.820312 206.042969 216.121094 215.460938 203.148438 C 222 194.148438 226.640625 190.730469 234.675781 189.007812 C 256.460938 184.335938 277.707031 206.832031 275.765625 232.519531 C 274.542969 248.710938 267.480469 262.523438 252.980469 277.070312 C 244.230469 285.851562 226.992188 298.835938 225.742188 297.585938 C 225.449219 297.292969 230.257812 292.382812 236.433594 286.683594 C 252.554688 271.800781 252.625 270.972656 237.265625 277.03125 C 230.285156 279.78125 222.441406 282.707031 219.839844 283.53125 C 204.839844 288.28125 177.335938 299.183594 162.476562 306.273438 C 111.09375 330.785156 75.707031 359.105469 53.246094 393.691406 C 40.59375 413.171875 34.652344 427.636719 31.351562 446.972656 C 29.039062 460.535156 30.160156 474.109375 34.664062 487.089844 C 44.160156 514.449219 69.140625 535.6875 103.511719 545.621094 C 130.867188 553.527344 152.6875 555.816406 206.820312 556.449219 L 250.613281 556.960938 L 236.410156 554.15625 C 169.167969 540.863281 135.171875 531.117188 106.867188 517.007812 C 77.640625 502.4375 56.363281 481.648438 49.867188 461.3125 C 46.316406 450.195312 45.648438 437.246094 48.175781 428.546875 C 55.875 402.066406 81.816406 374.320312 108.601562 363.921875 C 120.035156 359.480469 126.152344 358.566406 129.570312 360.789062 C 131.046875 361.746094 135.183594 363.484375 138.761719 364.648438 C 142.34375 365.8125 145.460938 366.921875 145.6875 367.117188 C 145.917969 367.3125 144.769531 369.238281 143.136719 371.398438 C 138.191406 377.9375 132.875 389.507812 131.570312 396.578125 C 128.035156 415.6875 144.507812 430.136719 164.019531 425.039062 C 180.414062 420.757812 191.453125 411.929688 223.980469 377.09375 C 241.929688 357.871094 234.804688 361.546875 204.453125 387.167969 C 178.40625 409.15625 169.53125 414.535156 157.179688 415.808594 C 151.183594 416.425781 150.484375 416.226562 147.199219 412.941406 C 144.875 410.613281 143.78125 408.4375 143.996094 406.566406 C 145.261719 395.671875 148.5 390.125 160.261719 378.6875 C 175.632812 363.75 191.804688 355.476562 233.019531 341.472656 C 248.554688 336.195312 265.585938 329.820312 270.871094 327.308594 C 296.90625 314.921875 317.289062 292.0625 325.152344 266.433594 C 336.886719 228.179688 327.554688 189.59375 300.0625 162.710938 C 286.425781 149.375 270.585938 140.25 252.835938 135.496094 C 240.84375 132.289062 213.433594 131.417969 200.308594 133.828125 M 122.527344 207.613281 C 121.734375 208.113281 119.40625 212.234375 117.351562 216.765625 C 112.042969 228.472656 107.988281 234.035156 94.777344 247.714844 C 82.675781 260.25 81.035156 263.574219 84.992188 267.53125 C 86.015625 268.554688 88.195312 269.390625 89.835938 269.390625 C 94.035156 269.390625 110.371094 260.679688 130.476562 247.714844 C 146.765625 237.210938 147.632812 236.464844 147.472656 232.957031 C 147.371094 230.710938 145.707031 227.273438 143.230469 224.179688 C 140.992188 221.378906 137.960938 217.089844 136.496094 214.648438 C 132.332031 207.707031 126.78125 204.910156 122.527344 207.613281 M 122.585938 210.507812 C 122.074219 211.320312 120.195312 215.0625 118.410156 218.824219 C 113.4375 229.289062 108.59375 235.757812 95.933594 248.851562 C 89.542969 255.457031 84.316406 261.675781 84.316406 262.671875 C 84.316406 264.972656 87.5 268.207031 89.761719 268.207031 C 95.199219 268.207031 147.046875 236.933594 147.046875 233.652344 C 147.046875 231.695312 131.742188 210.496094 129.789062 209.746094 C 126.757812 208.582031 123.585938 208.917969 122.585938 210.507812 M 692.300781 273.828125 C 689.410156 277.574219 681.519531 286.003906 674.761719 292.5625 C 626.953125 338.988281 549.917969 375.457031 482.328125 383.667969 C 446.488281 388.023438 388.710938 383.1875 347.457031 372.382812 C 335.792969 369.328125 334.292969 369.378906 338.402344 372.699219 C 357.613281 388.203125 399.511719 404.050781 439.394531 410.890625 C 454.636719 413.503906 497.703125 414.515625 515.527344 412.679688 C 530.964844 411.085938 552.199219 406.179688 563.621094 401.566406 C 567.816406 399.871094 571.464844 398.699219 571.722656 398.960938 C 572.5625 399.792969 561.113281 406.5 546.511719 413.726562 C 522.542969 425.585938 486.675781 436.421875 453.347656 441.867188 C 435.867188 444.722656 376.195312 444.703125 360.09375 441.839844 C 353.910156 440.738281 347.519531 439.847656 345.890625 439.855469 C 343.292969 439.871094 343.578125 440.273438 348.257812 443.171875 C 356.484375 448.269531 372.71875 454.816406 388.121094 459.246094 C 443.023438 475.035156 498.425781 468.171875 549.535156 439.253906 C 604.710938 408.035156 659.269531 350.179688 689.042969 291.316406 C 696.355469 276.859375 700.230469 267.023438 698.617188 267.023438 C 698.03125 267.023438 695.191406 270.085938 692.300781 273.828125 M 693.269531 274.894531 C 689.789062 280.203125 672.503906 297.644531 661.910156 306.535156 C 650.519531 316.089844 625.132812 333.449219 609.222656 342.554688 C 573.964844 362.742188 524.070312 379.878906 485.554688 385.035156 C 467.738281 387.421875 431.128906 387.679688 413.949219 385.535156 C 384.230469 381.832031 358.664062 377.34375 345.96875 373.601562 C 343.734375 372.945312 341.695312 372.613281 341.441406 372.871094 C 340.476562 373.832031 358.851562 383.710938 372.992188 389.835938 C 433.148438 415.894531 508.421875 420.019531 561.898438 400.195312 C 568.40625 397.78125 575.996094 394.503906 578.761719 392.910156 C 586.722656 388.332031 584.628906 391.472656 574.859375 398.769531 C 558.195312 411.214844 538.558594 420.679688 510.410156 429.828125 C 475.988281 441.019531 450.101562 445.402344 413.355469 446.257812 C 387.0625 446.871094 371.433594 445.695312 349.441406 441.453125 C 346.363281 440.859375 361.523438 448.496094 366.265625 449.929688 C 367.753906 450.375 370.570312 451.4375 372.523438 452.285156 C 392.941406 461.132812 425.601562 466.535156 452.730469 465.554688 C 476.410156 464.699219 497.523438 460.367188 518.695312 452.023438 C 580.65625 427.601562 645.042969 367.726562 683.15625 299.085938 C 688.5 289.464844 696.644531 271.757812 695.726562 271.757812 C 695.503906 271.757812 694.398438 273.167969 693.269531 274.894531 M 326.953125 333.863281 C 262.46875 344.566406 212.953125 389.671875 202.011719 447.671875 C 199.332031 461.859375 200.207031 487.527344 203.792969 499.988281 C 206.523438 509.484375 213.09375 523.574219 217.40625 529.179688 C 221.351562 534.304688 226.410156 539.585938 226.902344 539.085938 C 227.132812 538.851562 224.964844 533.863281 222.085938 528.007812 C 214.082031 511.726562 210.65625 497.027344 210.5 478.296875 C 210.34375 459.851562 212.613281 447.828125 219.066406 432.851562 C 227.378906 413.570312 239.644531 397.902344 255.230469 386.648438 C 273.527344 373.441406 292.257812 365.210938 313.753906 360.933594 C 328.914062 357.917969 359.289062 358.542969 380.808594 362.3125 C 390.570312 364.023438 404.6875 366.480469 412.171875 367.777344 C 429.984375 370.859375 455.859375 371.898438 469.578125 370.085938 C 485.058594 368.039062 506.859375 362.152344 506.859375 360.019531 C 506.859375 359.785156 498.738281 359.585938 488.808594 359.574219 C 463.980469 359.542969 454.242188 357.636719 415.335938 345.207031 C 403.082031 341.292969 387.371094 336.96875 380.421875 335.59375 C 364.179688 332.382812 340.488281 331.617188 326.953125 333.863281 M 331.6875 335.21875 C 305.433594 338.335938 281.0625 347.449219 260.855469 361.710938 C 207.53125 399.347656 187.191406 465.027344 212.652344 517.363281 C 215.503906 523.230469 219.011719 529.089844 220.449219 530.382812 L 223.058594 532.742188 L 220.585938 528.539062 C 213.363281 516.28125 208.585938 495.34375 208.609375 476.070312 C 208.695312 411.554688 262.039062 360.828125 333.464844 357.339844 C 350.8125 356.492188 370.125 358.308594 397.511719 363.367188 C 423.304688 368.128906 446.5625 370.339844 460.207031 369.328125 C 470.109375 368.59375 488.46875 365.222656 497.390625 362.503906 C 502.667969 360.894531 502.625 360.882812 492.65625 361.441406 C 471.847656 362.601562 453.613281 359.210938 417.238281 347.421875 C 380.699219 335.582031 357.050781 332.207031 331.6875 335.21875 M 241.480469 440.785156 C 236.199219 446.640625 232.007812 454.628906 229.269531 464.050781 C 226.714844 472.839844 227.359375 493.078125 230.476562 501.949219 C 243.910156 540.179688 290.515625 556.492188 416.316406 566.996094 C 464.921875 571.054688 534.972656 572.378906 566.632812 569.839844 C 573.792969 569.265625 582.046875 568.613281 584.976562 568.390625 C 587.90625 568.171875 591.636719 567.613281 593.261719 567.15625 C 594.890625 566.695312 607.671875 565.84375 621.667969 565.257812 C 659.800781 563.667969 684.808594 559.503906 714.289062 549.84375 C 727.277344 545.585938 747.878906 536.054688 746.683594 534.859375 C 746.390625 534.566406 741.113281 535.699219 734.957031 537.375 C 710.789062 543.960938 699.28125 545.320312 662.125 546 C 626.046875 546.660156 607.191406 545.773438 567.222656 541.550781 C 505.460938 535.023438 427.230469 519.664062 384.828125 505.742188 C 376.433594 502.984375 369.5625 501.039062 369.5625 501.417969 C 369.5625 502.992188 377.199219 509.734375 385.390625 515.398438 C 395.160156 522.152344 411.433594 530.554688 423.636719 535.148438 C 442.601562 542.289062 487.03125 553.414062 510.476562 556.898438 C 514.671875 557.519531 522.632812 558.820312 528.164062 559.789062 C 539.675781 561.796875 557.246094 563.769531 576.101562 565.171875 L 589.121094 566.136719 L 579.058594 566.390625 C 572.214844 566.558594 569.757812 566.964844 571.367188 567.65625 C 575.914062 569.609375 486.324219 569.566406 450.640625 567.597656 C 438.921875 566.949219 420.015625 565.617188 408.621094 564.628906 C 304.996094 555.65625 257.136719 541.742188 239.234375 515.382812 C 231.566406 504.085938 229.578125 497.097656 229.539062 481.253906 C 229.5 466.113281 231.484375 458.558594 238.253906 448.003906 C 244.042969 438.984375 244.671875 438.976562 244.847656 447.933594 C 245.289062 470.5 264.679688 494.230469 295.589844 510.019531 C 315.539062 520.210938 337.410156 526.824219 384.421875 536.878906 C 470 555.175781 537.703125 566.773438 555.980469 566.261719 C 560.351562 566.136719 560.8125 565.988281 557.753906 565.683594 C 528.699219 562.796875 486.777344 555.949219 432.292969 545.183594 C 334.15625 525.792969 304.347656 516.527344 277.863281 497.175781 C 268.039062 490 266.710938 488.757812 260.121094 480.664062 C 251.140625 469.628906 247.410156 460.367188 246.574219 447.042969 L 245.878906 435.910156 Z M 358.953125 454.917969 C 359.171875 459.539062 379.855469 480.421875 392.644531 488.929688 C 417.757812 505.644531 445.769531 515.582031 486.765625 522.324219 C 504.289062 525.207031 509.332031 525.535156 536.449219 525.570312 C 559.457031 525.597656 570.289062 525.09375 582.019531 523.445312 C 634.742188 516.027344 681.394531 501.628906 715.765625 482.15625 C 734.136719 471.75 737.65625 468.453125 725.683594 472.867188 C 696.292969 483.703125 648.203125 494.078125 609.242188 497.992188 C 589.929688 499.929688 535.667969 499.898438 512.832031 497.933594 C 457.359375 493.160156 409.941406 480.449219 370.871094 459.882812 C 358.9375 453.601562 358.890625 453.582031 358.953125 454.917969 M 362.320312 458.46875 C 364.976562 463.21875 385.265625 482.070312 393.828125 487.742188 C 424.867188 508.316406 465.582031 520.164062 517.800781 523.820312 C 573.640625 527.730469 645.878906 513.726562 699.785156 488.542969 C 707.976562 484.714844 728.035156 473.296875 724.050781 474.730469 C 694.445312 485.375 670.441406 491.164062 633.503906 496.574219 C 578.414062 504.640625 507.316406 502.550781 455.375 491.332031 C 424.015625 484.558594 389.613281 472.578125 370.4375 461.746094 C 365.074219 458.71875 361.695312 457.351562 362.320312 458.46875 M 373.214844 504.238281 C 373.488281 504.507812 377.703125 507.703125 382.585938 511.335938 C 413.382812 534.25 465.417969 549.738281 550.652344 561.359375 C 571.9375 564.261719 633.972656 564.253906 654.808594 561.34375 C 673.453125 558.742188 688.3125 555.652344 704.003906 551.121094 C 715.925781 547.675781 739.238281 539.234375 738.578125 538.601562 C 738.398438 538.429688 734.257812 539.320312 729.375 540.574219 C 724.492188 541.832031 713.574219 543.917969 705.113281 545.207031 C 647.164062 554.042969 537.316406 544.210938 434.070312 520.949219 C 416.597656 517.011719 386.605469 508.578125 377.476562 505.035156 C 374.019531 503.695312 372.359375 503.382812 373.214844 504.238281 " fill-opacity="1" fill-rule="evenodd"/></svg>